<?xml version="1.0" encoding="utf-8"?>
<!-- Generator: Adobe Illustrator 23.0.3, SVG Export Plug-In . SVG Version: 6.00 Build 0)  -->
<svg version="1.1" id="圖層_1" xmlns="http://www.w3.org/2000/svg" xmlns:xlink="http://www.w3.org/1999/xlink" x="0px" y="0px"
	 viewBox="0 0 320 30" style="enable-background:new 0 0 320 30;" xml:space="preserve">
<style type="text/css">
	.st0{fill:#47BBC5;}
	.st1{fill:#FFFFFF;}
</style>
<g>
	<path class="st0" d="M24.1,1.38H3.98c-0.49,0-0.92-0.03-1.28-0.06C2.35,1.27,2.03,1.2,1.77,1.09C1.5,0.98,1.28,0.85,1.11,0.7
		C0.94,0.54,0.75,0.31,0.52,0H0.19v6.81h0.34C0.69,5,1.28,3.81,2.3,3.29c1.02-0.54,2.29-0.8,3.79-0.8h6.18v23.41
		c0,1.1-0.32,1.87-0.96,2.34c-0.64,0.46-1.42,0.7-2.35,0.73v0.3h9.89v-0.3c-2.25-0.06-3.38-1.09-3.38-3.07V2.48h6.18
		c1.51,0,2.77,0.27,3.79,0.8c1.03,0.53,1.62,1.71,1.78,3.53h0.34V0h-0.34C26.48,0.92,25.44,1.38,24.1,1.38z M52.32,24.49l-2.8-4.26
		c-1.58-2.39-3.3-3.99-5.15-4.8v-0.08c1.46-0.24,2.68-0.7,3.66-1.36c0.98-0.67,1.7-1.46,2.17-2.4c0.47-0.93,0.71-1.9,0.71-2.9
		c0-0.8-0.14-1.61-0.43-2.42c-0.29-0.82-0.77-1.6-1.44-2.34c-0.66-0.75-1.6-1.35-2.8-1.84c-1.2-0.48-2.67-0.71-4.4-0.71H31.07v0.4
		h0.42c0.72,0,1.38,0.23,1.99,0.68c0.6,0.45,0.91,1.24,0.91,2.34v21.09c0,0.75-0.16,1.35-0.48,1.81c-0.31,0.45-0.72,0.76-1.19,0.94
		c-0.48,0.18-1.03,0.29-1.65,0.31v0.3h9.89v-0.3c-2.25-0.06-3.37-1.09-3.37-3.07V15.69c0.73,0,1.36,0.04,1.91,0.12
		c0.54,0.08,1.15,0.26,1.83,0.57c0.67,0.3,1.4,0.81,2.18,1.5c0.77,0.7,1.54,1.62,2.28,2.73l3.72,5.52c0.05,0.04,0.22,0.27,0.49,0.65
		c0.27,0.38,0.48,0.68,0.62,0.86c0.24,0.29,0.47,0.57,0.67,0.82c0.22,0.26,0.44,0.53,0.68,0.8h5.65v-0.3
		c-0.74-0.06-1.5-0.35-2.27-0.85C54.59,27.6,53.58,26.39,52.32,24.49z M39.37,14.95h-1.77V2.29c0.51-0.11,1.15-0.17,1.94-0.17
		c1.94,0,3.48,0.34,4.63,1.05c1.15,0.7,1.96,1.56,2.43,2.59c0.48,1.03,0.72,2.08,0.72,3.15c0,1.29-0.27,2.38-0.8,3.26
		c-0.53,0.89-1.4,1.57-2.59,2.05C42.73,14.72,41.21,14.95,39.37,14.95z M112.65,24.89c-0.29,0.73-0.63,1.36-1.04,1.87
		c-0.42,0.52-0.98,0.92-1.7,1.22c-0.71,0.29-1.63,0.43-2.74,0.43h-4.62c-1.15,0-1.89-0.27-2.2-0.82c-0.32-0.54-0.47-1.18-0.47-1.93
		v-9.9h5.97c0.55,0,1.08,0.04,1.58,0.11c0.27,0,0.58,0.06,0.92,0.18c0.35,0.13,0.69,0.39,1.05,0.77c0.35,0.38,0.59,0.93,0.71,1.65
		h0.31v-6.33h-0.31c-0.12,1.18-0.63,1.92-1.51,2.26c-0.89,0.32-1.89,0.49-3.02,0.49h-5.69V2.25h6.47c3.49,0,5.24,1.18,5.24,3.52
		h0.29V1.38H93.34V1.7h0.43c1.07,0,1.82,0.31,2.25,0.94c0.42,0.63,0.64,1.37,0.64,2.24v21.01c0,1.08-0.32,1.87-0.95,2.34
		c-0.64,0.48-1.28,0.72-1.94,0.72h-0.43v0.3h18.52l1.08-4.37H112.65z M79.14,1.7c1.46,0.11,2.39,0.47,2.78,1.06
		c0.4,0.59,0.6,1.28,0.6,2.04v15.24c0,3.48-1.29,6.01-3.87,7.59c-0.86,0.54-1.78,0.91-2.76,1.14c-0.99,0.23-1.83,0.35-2.56,0.35
		c-1.72,0-3.24-0.4-4.59-1.2c-1.35-0.8-2.36-1.9-3.04-3.31c-0.63-1.33-0.95-3.38-0.95-6.15V4.81c0-0.73,0.2-1.39,0.59-1.99
		c0.39-0.59,1.31-0.96,2.74-1.12V1.38h-9.76V1.7c1.41,0.11,2.3,0.44,2.67,1c0.37,0.57,0.56,1.27,0.56,2.1v13.88
		c0,1.14,0.08,2.25,0.23,3.32c0.16,1.07,0.53,2.09,1.12,3.07c0.83,1.39,2.12,2.56,3.89,3.51c1.76,0.95,3.75,1.42,5.96,1.42
		c1.95,0,3.82-0.43,5.62-1.31c1.79-0.87,3.14-2.24,4.04-4.13l0.11,0.08v4.62h6.52v-0.3c-0.7-0.11-1.3-0.25-1.78-0.44
		c-0.48-0.17-0.87-0.47-1.13-0.9c-0.28-0.42-0.42-1-0.42-1.73V4.77c0-0.67,0.21-1.34,0.61-1.99c0.41-0.66,1.33-1.02,2.76-1.09V1.38
		h-9.93V1.7z"/>
	<path class="st1" d="M210.88,1.37h-20.12c-0.49,0-0.92-0.01-1.28-0.06c-0.36-0.05-0.67-0.12-0.94-0.22
		c-0.27-0.11-0.49-0.24-0.65-0.4c-0.17-0.15-0.37-0.38-0.59-0.7h-0.34v6.81h0.34c0.16-1.82,0.76-2.99,1.78-3.53
		c1.02-0.53,2.28-0.8,3.79-0.8h6.17v23.42c0,1.1-0.31,1.88-0.96,2.34c-0.64,0.46-1.42,0.7-2.35,0.73v0.3h9.89v-0.3
		c-2.25-0.06-3.38-1.09-3.38-3.07V2.47h6.18c1.51,0,2.77,0.27,3.79,0.8c1.03,0.54,1.62,1.71,1.78,3.53h0.34V0H214
		C213.25,0.92,212.21,1.37,210.88,1.37z M154.81,1.37h-20.12c-0.49,0-0.92-0.01-1.28-0.06c-0.36-0.05-0.67-0.12-0.94-0.22
		c-0.27-0.11-0.49-0.24-0.65-0.4c-0.17-0.15-0.37-0.38-0.59-0.7h-0.34v6.81h0.34c0.17-1.82,0.76-2.99,1.78-3.53
		c1.02-0.53,2.28-0.8,3.79-0.8h6.18v23.42c0,1.1-0.32,1.88-0.96,2.34c-0.64,0.46-1.42,0.7-2.35,0.73v0.3h9.89v-0.3
		c-2.25-0.06-3.38-1.09-3.38-3.07V2.47h6.18c1.51,0,2.77,0.27,3.8,0.8c1.02,0.54,1.61,1.71,1.77,3.53h0.34V0h-0.34
		C157.18,0.92,156.15,1.37,154.81,1.37z M184.85,27.61c-0.44-0.56-0.9-1.45-1.39-2.68l-9.3-23.88h-2.28l-8.77,24
		c-0.46,1.27-1.01,2.22-1.63,2.84c-0.63,0.63-1.45,0.98-2.5,1.07v0.3h7.3v-0.3c-0.8,0-1.43-0.13-1.86-0.39
		c-0.43-0.26-0.65-0.78-0.65-1.56c0-0.57,0.17-1.32,0.5-2.26l2.47-6.85h10.75l2.76,7.4c0,0.05,0.04,0.13,0.09,0.22
		c0.27,0.72,0.4,1.3,0.4,1.73c0,0.78-0.28,1.26-0.84,1.44c-0.57,0.18-1.37,0.27-2.41,0.27v0.3h10.15v-0.3
		c-0.62-0.05-1.13-0.15-1.53-0.3C185.7,28.52,185.28,28.16,184.85,27.61z M167.09,16.89l4.75-13.23h0.09l5.06,13.23H167.09z
		 M276.52,4.65c-1.55-1.33-3.3-2.33-5.26-3.03c-1.96-0.7-4-1.05-6.11-1.05c-2.17,0-4.25,0.36-6.24,1.09
		c-1.99,0.73-3.76,1.78-5.31,3.1c-1.56,1.34-2.77,2.91-3.63,4.7c-0.87,1.8-1.3,3.72-1.3,5.76c0,2.67,0.73,5.12,2.18,7.38
		c1.45,2.26,3.45,4.06,5.98,5.39c2.53,1.33,5.31,2,8.35,2c3.02,0,5.78-0.67,8.27-2c2.49-1.33,4.45-3.12,5.89-5.37
		c1.45-2.24,2.16-4.67,2.16-7.29c0-2.17-0.44-4.15-1.33-5.98S278.08,5.97,276.52,4.65z M276.65,21.96c-0.77,1.79-1.77,3.2-2.99,4.24
		c-1.23,1.04-2.59,1.79-4.07,2.25c-1.49,0.46-2.95,0.69-4.4,0.69c-1.62,0-3.17-0.25-4.67-0.75c-1.5-0.49-2.87-1.31-4.12-2.44
		c-1.24-1.13-2.22-2.59-2.92-4.37c-0.71-1.78-1.07-3.88-1.07-6.27c0-2.72,0.43-5.02,1.29-6.87c0.86-1.85,1.95-3.29,3.28-4.32
		c1.33-1.01,2.7-1.73,4.1-2.11c1.41-0.38,2.77-0.58,4.08-0.58c1.68,0,3.48,0.36,5.39,1.08c1.92,0.71,3.6,2.11,5.07,4.21
		c1.46,2.1,2.19,5,2.19,8.71C277.79,18,277.41,20.18,276.65,21.96z M318.86,9.37c-0.89-1.82-2.11-3.39-3.67-4.72
		c-1.55-1.33-3.31-2.33-5.26-3.03c-1.96-0.7-4-1.05-6.12-1.05c-2.17,0-4.24,0.36-6.24,1.09c-1.99,0.73-3.76,1.78-5.31,3.1
		c-1.56,1.34-2.77,2.91-3.62,4.7c-0.87,1.8-1.31,3.72-1.31,5.76c0,2.67,0.73,5.12,2.19,7.38c1.45,2.26,3.45,4.06,5.98,5.39
		c2.52,1.33,5.31,2,8.34,2c3.03,0,5.78-0.67,8.27-2c2.49-1.33,4.45-3.12,5.89-5.37c1.45-2.24,2.17-4.67,2.17-7.29
		C320.19,13.18,319.74,11.19,318.86,9.37z M315.32,21.96c-0.77,1.79-1.76,3.2-2.99,4.24c-1.23,1.04-2.59,1.79-4.07,2.25
		c-1.48,0.46-2.95,0.69-4.4,0.69c-1.62,0-3.17-0.25-4.67-0.75c-1.5-0.49-2.87-1.31-4.11-2.44c-1.24-1.13-2.23-2.59-2.94-4.37
		c-0.71-1.78-1.06-3.88-1.06-6.27c0-2.72,0.43-5.02,1.28-6.87c0.86-1.85,1.95-3.29,3.28-4.32c1.33-1.01,2.7-1.73,4.1-2.11
		c1.4-0.38,2.76-0.58,4.07-0.58c1.68,0,3.48,0.36,5.39,1.08c1.92,0.71,3.6,2.11,5.07,4.21c1.46,2.1,2.19,5,2.19,8.71
		C316.47,18,316.09,20.18,315.32,21.96z M242.02,1.37H221.9c-0.49,0-0.92-0.01-1.27-0.06c-0.36-0.05-0.67-0.12-0.94-0.22
		c-0.27-0.11-0.48-0.24-0.65-0.4c-0.17-0.15-0.37-0.38-0.59-0.7h-0.34v6.81h0.34c0.17-1.82,0.76-2.99,1.78-3.53
		c1.02-0.53,2.28-0.8,3.78-0.8h6.17v23.42c0,1.1-0.32,1.88-0.95,2.34c-0.64,0.46-1.43,0.7-2.35,0.73v0.3h9.89v-0.3
		c-2.25-0.06-3.38-1.09-3.38-3.07V2.47h6.18c1.51,0,2.77,0.27,3.8,0.8c1.02,0.54,1.61,1.71,1.77,3.53h0.34V0h-0.34
		C244.4,0.92,243.35,1.37,242.02,1.37z"/>
</g>
</svg>
