<?xml version="1.0" encoding="utf-8"?>
<!-- Generator: Adobe Illustrator 23.0.3, SVG Export Plug-In . SVG Version: 6.00 Build 0)  -->
<svg version="1.1" id="圖層_1" xmlns="http://www.w3.org/2000/svg" xmlns:xlink="http://www.w3.org/1999/xlink" x="0px" y="0px"
	 viewBox="0 0 130 134" style="enable-background:new 0 0 130 134;" xml:space="preserve">
<style type="text/css">
	.st0{fill:#FFFFFF;}
</style>
<path class="st0" d="M130.32,61.99c-0.09-0.35-0.25-0.68-0.4-1c-0.14-0.29-0.26-0.56-0.35-0.84l0.16-0.6l0-0.03l0-0.02
	c0.03-0.18-0.32-1.21-0.33-1.22c-0.28-0.57-0.75-0.97-1.19-1.35c-0.39-0.34-0.76-0.67-0.98-1.08l0.26-2.57l0.01-0.05l-0.02-0.05
	c-0.01-0.05-0.34-1.4-0.46-1.61c-0.11-0.2-0.26-0.4-0.41-0.59c-0.16-0.22-0.33-0.43-0.44-0.65l-0.32-1.2l0-0.02l-0.01-0.02
	c-0.32-0.81-0.66-1.52-1.02-2.15l-0.23-0.57l-0.02-0.04l-0.03-0.04c-0.28-0.37-0.7-0.38-1.06-0.38c-0.17,0-0.35-0.01-0.51-0.05
	c-0.28-0.07-0.59-0.17-0.89-0.26c-0.27-0.09-0.54-0.18-0.81-0.24l-0.03-0.01l-0.03-0.01l-0.32-0.01l-0.29-0.01
	c-0.28-0.06-0.55-0.09-0.82-0.13c-0.33-0.03-0.67-0.07-1.02-0.17c-0.21-0.05-0.44-0.15-0.66-0.24c-0.21-0.08-0.4-0.16-0.58-0.21
	l-0.02,0l-0.01,0l-0.91-0.17c-0.33-0.16-0.67-0.34-0.98-0.51c-0.75-0.41-1.53-0.84-2.46-1.06l-0.08-0.01l-0.08,0.02l-2.05,0.5
	c-0.43,0.09-0.9,0.19-1.37,0.29c-1.47,0.32-3.14,0.69-4.67,0.69c-0.68,0-1.28-0.08-1.83-0.22L103,44.07l-0.07,0.01l-0.25,0.03
	l-0.03-0.06L102.58,44c-0.2-0.14-0.38-0.19-0.53-0.23c-0.1-0.02-0.16-0.04-0.2-0.07l-0.02-0.63l-0.03-0.78v-0.03l0-0.03
	c-0.04-0.19-0.11-0.39-0.19-0.57c-0.13-0.33-0.26-0.67-0.19-0.97l0.17-0.24l0.28-0.38l0.04-0.05l0.02-0.06l0.21-0.66l0.21-0.65
	c0.09-0.21,0.2-0.4,0.31-0.6c0.21-0.37,0.43-0.75,0.54-1.29c0.32-0.09,0.94-0.18,1.44-0.18c0.12,0,0.21,0.01,0.29,0.01l0.39,0.05
	l0.45,0.06l0.04,0h0.05c0.2-0.03,0.4-0.04,0.64-0.04c0.63,0,1.29,0.09,1.9,0.19l0.04,0h0.03l0.82-0.03l2.73,1.12
	c0.06,0.02,0.23,0.08,0.93,0.08c0.79,0,2.16-0.05,2.42-0.37c0.42-0.51,0.11-1.8-0.01-2.09c-0.08-0.21-0.22-0.34-0.31-0.43
	c-0.05-0.05-0.09-0.09-0.11-0.12c-0.19-0.26-0.34-0.54-0.5-0.84c-0.09-0.17-0.17-0.33-0.26-0.48c-0.15-0.25-0.35-0.43-0.54-0.58
	c-0.14-0.12-0.27-0.23-0.35-0.34c-0.04-0.06-0.07-0.11-0.1-0.17c-0.08-0.14-0.18-0.3-0.35-0.45c-0.2-0.15-0.4-0.33-0.6-0.5
	c-0.6-0.52-1.27-1.1-1.99-1.43c-0.74-0.34-1.47-0.66-2.17-0.97c-0.59-0.26-1.17-0.51-1.75-0.78l-0.02,0l-0.01-0.01l-1.01-0.37
	l-0.43-0.39l-0.05-0.05l-0.06-0.05l-0.07-0.02l-0.27-0.09l-0.17-0.06l-0.44-0.55l-0.03-0.03l-0.04-0.03
	c-0.11-0.08-0.22-0.16-0.33-0.23c-0.22-0.15-0.42-0.29-0.6-0.46c-0.07-0.07-0.15-0.18-0.23-0.29c-0.16-0.21-0.33-0.46-0.58-0.6
	c-0.48-0.26-1.27-0.73-1.38-0.86c-0.14-0.17-0.22-0.36-0.31-0.56c-0.06-0.13-0.13-0.27-0.2-0.41c-0.15-0.27-0.36-0.46-0.56-0.64
	c-0.16-0.14-0.32-0.28-0.4-0.43c-0.08-0.13-0.14-0.27-0.2-0.41c-0.08-0.18-0.16-0.37-0.28-0.54l0.15-0.22l-0.21-0.21
	c-0.15-0.15-0.21-0.29-0.28-0.47c-0.09-0.21-0.19-0.46-0.47-0.69l0.08-0.13l-0.13-0.19c-0.13-0.2-0.23-0.44-0.34-0.69
	c-0.1-0.26-0.22-0.52-0.37-0.78c-0.13-0.2-0.29-0.27-0.42-0.33c-0.05-0.03-0.1-0.05-0.12-0.06c-0.06-0.07-0.24-0.35-0.36-0.54
	l0.04-0.07l0.11-0.24l-0.18-0.17c-0.35-0.34-0.57-0.8-0.81-1.28c-0.14-0.28-0.28-0.57-0.46-0.85c-0.1-0.17-0.23-0.34-0.34-0.52
	c-0.17-0.24-0.34-0.49-0.46-0.72l-0.17-0.51l-0.01-0.05l-0.03-0.04c-0.12-0.15-0.27-0.42-0.44-0.69c-0.42-0.69-0.73-1.2-1-1.42
	l-1.88-1.45l-0.05-0.03L90.4,9.03l-0.42-0.15l-0.02-0.01c-0.05-0.04-0.09-0.11-0.14-0.19c-0.11-0.18-0.26-0.43-0.59-0.55L89.17,8.1
	l-0.08,0l-0.22,0.02l-0.12,0.01c-0.19-0.11-0.64-0.39-0.71-0.44c-0.09-0.06-0.15-0.18-0.23-0.3c-0.12-0.21-0.31-0.53-0.72-0.6l0,0
	l-0.07-0.31l-0.24,0.03c-0.1-0.14-0.25-0.21-0.4-0.21c-0.04,0-0.08,0-0.13,0.01c-0.44-0.35-0.92-0.6-1.4-0.83
	c-0.26-0.12-0.52-0.25-0.77-0.39C84.03,5.06,83.96,5,83.88,4.93c-0.13-0.11-0.27-0.22-0.45-0.31c-0.15-0.06-0.3-0.11-0.46-0.17
	c-0.36-0.12-0.77-0.26-0.85-0.49L82.08,3.8l-0.16-0.05c-0.09-0.03-0.21-0.06-0.38-0.07l0,0L81.21,3.5
	c-0.59-0.32-1.27-0.53-1.93-0.73c-0.72-0.22-1.4-0.42-1.94-0.76l-0.29-0.18L77,1.91h-0.02c-0.11-0.03-0.21-0.04-0.35-0.04
	c-0.07,0-0.13,0-0.2,0c-0.05,0-0.1,0-0.15,0c-0.05,0-0.08,0-0.08,0c-0.11-0.03-0.37-0.12-0.64-0.23c-0.69-0.27-1.54-0.6-2.12-0.6
	c-0.09,0-0.17,0.01-0.25,0.03c-0.17-0.12-0.35-0.18-0.54-0.18c-0.09,0-0.18,0.01-0.28,0.03c-0.36-0.22-0.98-0.31-1.84-0.4l-0.07,0
	l-0.19-0.02l-0.05,0.05c-0.07-0.06-0.18-0.11-0.33-0.15l-0.03-0.01h-1.06c-0.44-0.07-0.92-0.11-1.39-0.15
	c-0.4-0.03-0.78-0.06-1.1-0.11C66.2,0.11,66.08,0.1,65.95,0.1c-0.21,0-0.42,0.02-0.62,0.05c-0.18,0.02-0.35,0.04-0.51,0.04
	c-0.14,0-0.26-0.02-0.37-0.05l-0.21-0.06l-0.15,0.17l-0.07,0.08l-0.05-0.01l-0.25-0.06l-0.19-0.02l0,0l-0.24,0.33
	c-0.01,0.2-0.06,0.4-0.1,0.59c0,0,0,0.01,0,0.01l0-0.02c0.04-0.19,0.09-0.38,0.1-0.59l0.24-0.33l-22.61,6.8L26.25,25.8l-15.6,10.63
	l6.1,2.9l8.18-1.75l2.1,6.26l-7.72,3.47L9.04,45.9l-6.28,3.72L0.41,61.2l4.5,19.85l15.81,16.24l10.25,3.84l0.99,3.5l4.23,1.91
	l3.2,13.1l2.6,1.24l2.27,8.63l4.74,2.85l1.22-11.48l2.85,1.72l0.14,2.44l-0.27,3.61l3.94,2.84l0.53-1.72l1.09,1.54l1.91-0.46
	l0.12-0.44l2.06,1.47l0.81-0.79c0.24,0.37,0.51,0.69,0.85,0.81c0.11,0.04,0.23,0.06,0.34,0.06c0.74,0,1.62-1.11,2.09-1.66l0.17,0.92
	l0.04,0.13l0.11,0.07c0.25,0.14,0.51,0.22,0.78,0.22c0.53,0,0.99-0.28,1.39-0.52c0.19-0.11,0.38-0.38,0.52-0.56
	c0.01,0.02,0.02,0.31,0.04,0.34c0.05,0.12,0.13,0.28,0.25,0.41c0.21,0.22,0.54,0.23,0.68,0.23c0.09,0,0.16,0,0.24-0.02
	c0.96-0.21,1.12-0.63,1.23-1.15c0.05-0.22,0.09-0.43,0.28-0.65c0.19-0.23,0.41-0.42,0.66-0.62c0.45-0.36,0.9-0.74,1.16-1.37
	c0.15-0.34,0.17-0.69,0.2-1.03c0.01-0.2,0.03-0.39,0.07-0.58l0.11-0.15l0.1-0.15l0.08-0.1l0-0.12l-0.05-0.84l-0.01-0.32
	c0.11-0.15,0.4-0.41,0.61-0.58c0.3-0.26,0.57-0.5,0.73-0.72c0.15-0.22,0.27-0.48,0.38-0.73c0.12-0.26,0.24-0.53,0.38-0.72
	c0.12,0.08,0.26,0.2,0.3,0.26v0.03c0,0.08-0.02,0.34,0.24,0.49c1.92,1.11,1.47,3.26,0.96,5.75c-0.4,1.92-0.81,3.92-0.02,5.51
	l0.01,0.02l0.01,0.02c0.11,0.17,0.23,0.22,0.35,0.25l0.04,0.01l0.08,0.02l0.07,0c0.62-0.07,1.35-0.71,1.94-1.21
	c0.16-0.14,0.31-0.27,0.42-0.36c0.14-0.11,0.34-0.22,0.56-0.32c0.32-0.17,0.66-0.34,0.88-0.59l0.04-0.03l0.02-0.03l0.17-0.3
	l0.15-0.28c0.13-0.16,0.29-0.32,0.46-0.49c0.2-0.2,0.41-0.4,0.58-0.64c0.74-1.05,1.46-2.42,2.13-4.06c0.17-0.41,0.24-0.86,0.32-1.29
	c0.08-0.43,0.15-0.86,0.31-1.23c0.07-0.15,0.19-0.33,0.32-0.52c0.14-0.19,0.27-0.38,0.36-0.58l0.01-0.02l0.01-0.02
	c0.05-0.14,0.04-0.25,0.02-0.35c0.42-0.26,1.02-0.75,1.2-1c0.48-0.7,1.15-3.8,0.98-4.91c-0.04-0.23-0.11-0.43-0.18-0.6
	c-0.11-0.26-0.19-0.49-0.13-0.8c0.06-0.27,0.18-0.49,0.31-0.71c0.09-0.14,0.17-0.29,0.24-0.46c0.42-1.01,1.53-3.44,2.78-4.36
	c0.23-0.16,0.59-0.22,0.98-0.28c0.39-0.07,0.79-0.13,1.15-0.32c1.4-0.7,2.72-1.53,4.01-2.33c0.87-0.54,1.55-1.29,2.2-2.02
	c0.68-0.77,1.33-1.49,2.16-1.97c0.08-0.05,0.22-0.07,0.43-0.07c0.16,0,0.35,0.02,0.55,0.03c0.19,0.02,0.42,0.03,0.63,0.03
	c0.19,0,0.35-0.01,0.5-0.04c0.37-0.08,1.46-0.61,1.76-0.8c0.59-0.37,1-1.09,1.37-1.72c0.1-0.16,0.19-0.32,0.28-0.47l0.5-0.61
	l0.41-0.51l0.01-0.02l0.02-0.02c0.5-0.81,1.19-1.92,2.02-2.58c0.22-0.18,0.46-0.34,0.71-0.52c0.26-0.18,0.53-0.36,0.78-0.57
	l0.03-0.02l0.02-0.03l0.15-0.19l0.36-0.45c0.46-0.4,0.88-0.84,1.28-1.28c0.54-0.58,1.05-1.13,1.65-1.58l0.8-0.48l1.14-0.68
	c0.06-0.03,0.14-0.05,0.23-0.07c0.21-0.04,0.48-0.1,0.65-0.37l0.17-0.26l-0.07-0.06c0.1-0.18,0.29-0.47,0.36-0.56
	c0.04-0.05,0.11-0.11,0.19-0.17c0.14-0.11,0.31-0.25,0.42-0.46c0.06-0.13,0.12-0.29,0.19-0.45c0.09-0.22,0.19-0.49,0.27-0.6
	c0.33-0.4,0.71-0.84,0.92-1.47l0.15-0.21l0.18-0.26l0.02-0.03l0.01-0.03c0.39-0.87,0.7-1.54,1.07-2.2l0.03-0.05l0.01-0.05l0.05-0.29
	l0.03-0.13c0.1-0.26,0.25-0.54,0.4-0.84c0.17-0.33,0.34-0.67,0.46-1l0.01-0.02l0-0.02l0.09-0.38l0.07-0.31l0.44-0.66l0.02-0.03
	l0.01-0.02c0.44-0.94,0.76-1.69,1.15-2.67c0.02-0.05,0.07-0.13,0.13-0.21c0.11-0.13,0.23-0.29,0.29-0.51
	c0.22-0.78,0.36-1.32,0.51-1.97c0.1-0.4,0.11-0.76,0.11-1.11c0.01-0.32,0.02-0.63,0.1-0.92c0.21-0.8,0.6-1.44,1.02-2.11
	c0.15-0.23,0.3-0.47,0.44-0.72c0.3-0.54,0.44-1.11,0.57-1.67c0.09-0.37,0.18-0.75,0.32-1.12l0.09-0.23
	C130.13,64.35,130.61,63.07,130.32,61.99z M64.02,13.88L64.02,13.88l0.05-0.52l0.01-0.02v-0.02l-0.03-1.24l0.09-0.29l0.1-0.34
	l0.01-0.03l0-0.02c0.04-0.21-0.03-0.35-0.09-0.45l0.05-0.18l0.03-0.1l-0.03-0.09l-0.07-0.26c0.07-0.1,0.16-0.29,0.07-0.56
	c-0.03-0.09-0.06-0.15-0.09-0.21c-0.02-0.03-0.03-0.06-0.05-0.09l0.07-0.06l0.17-0.12l-0.03-0.2L64.2,8.4L64.1,7.75
	c0.02-0.29,0.14-0.77,0.22-1.01l0.02-0.05V6.65l0.06-1.4l0.06-1.38c0.04-0.34,0.01-0.7-0.01-1.06c-0.03-0.43-0.07-0.89,0.06-1.16
	c0.06-0.1,0.3-0.15,0.73-0.15c0.11,0,0.21,0,0.32,0c0.11,0,0.22,0,0.33,0c0.19,0,0.32,0,0.46-0.02c0.02,0,0.04-0.01,0.07-0.01
	c0.13,0,0.28,0.04,0.43,0.09c0.09,0.02,0.19,0.05,0.28,0.07l0.03,0.01h0.04l1.37-0.03c0.22,0.03,0.47,0.03,0.71,0.03h0.24
	c0.3,0,0.62,0.01,0.88,0.08c0.01,0,0.03,0.01,0.06,0.03c0.09,0.05,0.22,0.13,0.45,0.13h0.03l0.01,0h0.05c0.61,0,1.6,0.31,2.46,0.59
	c0.42,0.13,0.81,0.26,1.13,0.34c0.41,0.1,0.8,0.14,1.19,0.18c0.46,0.05,0.9,0.08,1.33,0.23l0.11,0.14l0.06,0.07l0.09,0.03l2.02,0.68
	c0.54,0.26,1.11,0.51,1.66,0.75c0.3,0.13,0.59,0.26,0.87,0.39c0.31,0.14,0.6,0.25,0.88,0.36c0.54,0.21,1.05,0.4,1.52,0.72
	c0.22,0.15,0.43,0.35,0.66,0.57c0.22,0.22,0.44,0.44,0.71,0.62l0.02,0.02l0.02,0.01l0.32,0.17l0.12,0.23l0.05,0.08l0.09,0.05
	c0.48,0.26,0.88,0.53,1.32,0.81c0.21,0.14,0.43,0.29,0.67,0.44c0.11,0.07,0.18,0.12,0.24,0.19c0.11,0.1,0.24,0.21,0.52,0.33
	c0,0.01,0.01,0.03,0.02,0.05l0.03,0.21l0.21,0.07c0.25,0.07,0.62,0.26,0.84,0.41l-0.23,0.36l0.41,0.15l0.19,0.07l0.05,0.05
	c0.21,0.28,0.48,0.49,0.74,0.69c0.23,0.18,0.45,0.34,0.6,0.55c0.59,0.77,1.06,1.59,1.56,2.46c0.27,0.47,0.54,0.96,0.84,1.44
	c0.24,0.38,0.52,0.78,0.78,1.17c0.31,0.44,0.62,0.9,0.89,1.35c0.37,0.62,0.68,1.29,0.97,1.95c0.32,0.72,0.66,1.46,1.11,2.18
	l0.67,0.99l0.2,0.29l0.07,0.21l0.09,0.26l0.02,0.05l0.03,0.03c0.28,0.41,0.72,0.75,1.1,1.06l0.11,0.09l0.06,0.06l1.27,1.36
	l0.01,0.01l0.01,0.01c0.53,0.48,1.15,0.89,1.76,1.29c0.25,0.16,0.49,0.32,0.72,0.49c0.28,0.2,0.59,0.34,0.88,0.48
	c0.4,0.19,0.77,0.36,1.04,0.65l0.1,0.11h0.17l0,0.1l0.33,0.05c0.56,0.08,1.24,0.35,1.83,0.59c0.2,0.08,0.39,0.16,0.58,0.23
	l0.01,0.01l0.02,0l0.54,0.16l0.96,0.93l0.03,0.03l0.04,0.03c1.6,0.86,2.54,2.01,3.19,3.91c-0.19,0.06-0.54,0.12-1.07,0.12
	c-0.45,0-0.8-0.04-0.97-0.09l-0.09-0.08l-0.15-0.12l-0.04-0.03l-0.04-0.02l-1.08-0.48l-0.34-0.15c-1.26-0.53-2.78-0.82-4.4-0.82
	c-1.21,0-2.43,0.17-3.52,0.47c-2.99,0.85-5.05,1.57-6.48,3.85l-0.01,0.02l-0.01,0.03l-0.58,1.31l-0.16,0.38l-0.31,0.47l-0.13,0.2
	l-0.01,0.02l-0.01,0.03c-0.07,0.15-0.1,0.29-0.13,0.43c-0.04,0.17-0.08,0.3-0.15,0.39c-0.26,0.32-0.64,0.55-1.05,0.79
	c-0.26,0.15-0.53,0.32-0.78,0.51c-0.14,0.11-0.22,0.28-0.28,0.4c-0.02,0.05-0.06,0.13-0.08,0.14c-0.05,0.04-0.25,0.12-0.42,0.12
	c-0.04,0-0.06,0-0.08-0.02c0,0-0.01,0-0.01,0c0-0.03,0-0.08,0-0.11c0-0.16,0.01-0.38-0.11-0.64l-0.03-0.07l-0.06-0.05
	c-0.09-0.07-0.2-0.11-0.31-0.11h-0.01l-0.13-0.16l-0.04-0.05l-0.05-0.03c-0.13-0.08-0.28-0.11-0.46-0.11c-0.19,0-0.37,0.03-0.5,0.06
	l-0.66,0.03h-0.06l-0.06,0.02c-0.41,0.16-1.15,1.5-1.23,1.81l-0.02,0.05l0.01,0.06l0.06,0.83l0.03,0.41l0.01,0.12l0.08,0.09
	l0.34,0.39l0.09,0.1c-0.01,0.03-0.03,0.06-0.08,0.13c-0.02,0.03-0.05,0.07-0.08,0.11c-0.2,0.09-0.45,0.13-0.71,0.18
	c-0.43,0.08-0.87,0.16-1.19,0.41c-0.25,0.2-0.4,0.48-0.53,0.72c-0.05,0.09-0.09,0.18-0.14,0.27c-0.23,0.35-0.68,0.77-1.16,0.98
	c0.07-0.19,0.19-0.41,0.25-0.51c0.03-0.05,0.06-0.11,0.08-0.16c0.34-0.68,0.51-1.34,0.69-2.04c0.12-0.46,0.23-0.93,0.41-1.41
	l0.21-0.57l0.3-0.79l0.01-0.02l0.01-0.03l0.33-1.59l0.05-0.25c0.26-0.65,2.11-2.85,2.71-3.3l0.77-0.31l0.03-0.01l0.03-0.02
	c0.51-0.32,1.02-0.63,1.54-0.97c0.37-0.26,0.71-0.57,1.04-0.89c0.31-0.29,0.6-0.57,0.91-0.79c0.7-0.5,1.52-0.82,2.39-1.16
	c0.31-0.12,0.61-0.23,0.92-0.37c0.18-0.08,0.35-0.16,0.52-0.25c0.32-0.16,0.62-0.31,0.98-0.4c0.75-0.17,1.76-0.33,2.46-0.43
	c0.42-0.06,0.86-0.12,1.35-0.21c0.1-0.01,0.2-0.02,0.32-0.02c0.29,0,0.61,0.05,0.95,0.1c0.35,0.05,0.71,0.1,1.07,0.1
	c0.29,0,0.55-0.04,0.77-0.11h0.35l-0.29-0.31l-0.19-0.1c-0.22-0.11-0.4-0.17-0.56-0.17c-0.11,0-0.21,0.03-0.29,0.05
	c-0.04,0.01-0.07,0.02-0.1,0.02c-0.04-0.05-0.09-0.11-0.18-0.17l-0.11-0.06l-0.12,0.02l-0.33,0.05c-0.1-0.02-0.21-0.04-0.32-0.06
	c-0.49-0.09-1.23-0.23-1.81-0.23c-0.32,0-0.61,0.03-0.88,0.1l-0.03,0l-0.03,0.02l-0.21,0.09c-0.07,0-0.14-0.01-0.21-0.02
	c-0.09,0-0.2-0.02-0.31-0.02c-0.14,0-0.26,0.02-0.37,0.05c-0.42,0.12-0.79,0.03-1.26,0.22c-0.35,0.14-0.72,0.28-1.06,0.4l-0.84,0.13
	l-0.09,0.01l-0.03,0l-0.03,0.01c-0.13,0.05-0.28,0.13-0.43,0.21c-0.09,0.04-0.19,0.09-0.25,0.12l-0.22-0.02l-0.08-0.01l-0.07,0.03
	c-0.34,0.11-1.21,0.67-1.46,0.87l-0.05,0.04l-0.04,0.06l-0.05,0.1h-0.01l-0.06,0.01l-0.17,0.01l-0.07,0.01l-0.06,0.03
	c-0.6,0.29-1.06,0.75-1.51,1.2c-0.34,0.34-0.67,0.66-1.03,0.9l-0.41,0.16l-0.28,0.11l-0.02,0L90,37.25
	c-0.17,0.09-0.33,0.23-0.49,0.37c-0.08,0.07-0.16,0.14-0.23,0.19l-0.26,0.09L88.71,38l-0.03,0.02l-0.03,0.01
	c-0.28,0.15-0.41,0.41-0.52,0.62c-0.03,0.07-0.07,0.14-0.12,0.2l-0.4,0.37l-0.46,0.4c-0.13,0.14-0.19,0.29-0.25,0.42
	c-0.03,0.08-0.06,0.14-0.09,0.19c-0.12,0.18-0.29,0.34-0.46,0.51c-0.22,0.22-0.45,0.45-0.63,0.73c-0.18,0.29-0.24,0.58-0.3,0.87
	c-0.03,0.15-0.07,0.32-0.13,0.49c-0.06,0.16-0.16,0.35-0.27,0.54c-0.13,0.25-0.28,0.51-0.36,0.76l-0.01,0.03l0,0.04l-0.09,1
	l-0.03,0.15c-0.11,0.57-0.24,1.21-0.43,1.73c-0.2,0.53-0.47,1.04-0.72,1.53c-0.38,0.72-0.77,1.46-0.96,2.3
	c-0.19,0.79,0.09,1.5,0.34,2.14c0.13,0.34,0.26,0.67,0.31,0.97c0.12,0.76-0.2,1.8-0.43,2.57c-0.05,0.17-0.1,0.33-0.13,0.47
	c-0.06,0.23-0.07,0.46-0.07,0.66c-0.01,0.12-0.01,0.24-0.02,0.32l-0.01,0.05l0.01,0.05l0.12,1.29l0.01,0.09l0.05,0.08l0.35,0.48
	c0.05,0.37-0.22,1.7-0.42,2.51C82.29,62.32,81.97,62,81.52,62C81.5,62,81.47,62,81.44,62c-0.09-0.08-0.19-0.15-0.29-0.23
	c-0.22-0.18-0.48-0.36-0.6-0.53c-0.09-0.14-0.18-0.3-0.27-0.46c-0.22-0.43-0.49-0.92-1.06-1.14c-0.11-0.04-0.23-0.06-0.34-0.06
	c-0.17,0-0.32,0.04-0.45,0.07c-0.09,0.03-0.19,0.06-0.27,0.06c-0.03,0-0.07,0-0.1-0.02c-0.08-0.03-0.17-0.07-0.26-0.14
	c-0.19-0.13-0.42-0.29-0.78-0.29c-0.17,0-0.35,0.04-0.54,0.12c-0.32,0.12-0.48,0.4-0.61,0.61c-0.07,0.11-0.13,0.22-0.2,0.28
	l-0.16,0.07l-0.19,0.09l-0.44,0.2l0.2,0.2l-0.06,0.03l-0.07,0.04l-0.04,0.06c-0.19,0.29-0.38,0.7-0.49,1.13
	c-0.26-0.33-0.58-0.85-0.75-1.12c-0.16-0.26-0.29-0.47-0.38-0.57c-0.32-0.41-0.73-0.72-1.11-1.03c-0.42-0.32-0.81-0.63-1.08-1.01
	l-0.31-0.56l-1.06-1.89l-0.02-0.03l-0.02-0.03l-0.92-1.04l-0.11-0.15c-0.3-0.4-0.64-0.86-1.17-1.11c-0.16-0.09-0.34-0.13-0.52-0.13
	c-0.96,0-2.06,1.23-2.59,2.05c-0.12-0.64-0.2-1.63-0.24-2.13l-0.02-0.31c-0.01-0.08,0.02-0.22,0.05-0.36
	c0.07-0.32,0.16-0.71-0.04-1.05c-0.02-0.04-0.06-0.09-0.1-0.14l0.04,0l0.09-0.15c0.26-0.42,0.21-0.9,0.16-1.38
	c-0.03-0.28-0.05-0.54-0.02-0.77c0.14-0.84,0.2-2.95-0.19-3.96c-0.05-0.1-0.01-0.36,0.03-0.57c0.04-0.3,0.09-0.65,0.01-0.95
	c-0.13-0.49-0.2-1.08-0.17-1.44l0.02-0.31l-0.04-0.01c0.21-0.49,0.19-0.89,0.15-1.31c-0.02-0.31-0.05-0.64,0.02-1.08
	c0.15-1,0.17-2.69-0.05-3.7l0.02-0.13l0.03-0.19v-0.02l0-0.01l0.01-0.22c0.03-0.56,0.08-1.2-0.08-1.68
	c0.19-0.33,0.18-0.73,0.17-1.11c-0.01-0.21-0.01-0.42,0.01-0.63c0-0.04,0.04-1.01-0.01-1.21c-0.03-0.1-0.08-0.18-0.11-0.23
	c-0.02-0.02-0.03-0.05-0.04-0.06c0.01-0.07,0.04-0.15,0.07-0.24c0.09-0.26,0.21-0.61,0.14-1.03c-0.03-0.23-0.13-1.32-0.12-1.51
	c0.17-0.76,0-1.69-0.14-2.5c-0.04-0.2-0.07-0.38-0.09-0.55c-0.05-0.29,0-0.75,0.04-1.2c0.05-0.44,0.09-0.85,0.06-1.17l-0.09-1.39
	c0.11-0.51,0.06-1.07,0.01-1.61c-0.03-0.46-0.07-0.88-0.02-1.25l0-0.05l0-0.05l-0.05-0.35C64.07,16.74,64.16,14.78,64.02,13.88z
	 M96.94,57.59c0.28,0.04,0.56,0.13,0.84,0.22c0.42,0.13,0.85,0.26,1.37,0.26c0.2,0,0.4-0.02,0.61-0.06L99.79,58l0.04-0.02
	c0.41-0.2,0.82-0.4,1.24-0.59c0.27-0.08,0.59-0.12,0.95-0.12c0.63,0,1.26,0.12,1.75,0.23l0.06,0.02l0.07-0.01l0.22-0.03l0.03,0.02
	l0.15,0.14l0.05,0.04l0.06,0.03c0.39,0.15,0.78,0.29,1.15,0.42c0.31,0.11,0.62,0.22,0.92,0.33l0.03,0.01l0.03,0.01l0.86,0.17
	l0.1,0.06c0.66,0.41,1.77,1.07,2.89,1.07c0.21,0,0.41-0.03,0.61-0.07c1.03-0.26,1.67-0.81,2.28-1.35c0.28-0.24,0.55-0.47,0.85-0.69
	c0.12-0.08,0.24-0.17,0.36-0.25c0.46-0.32,0.93-0.66,1.43-0.85c0.18-0.07,0.34-0.11,0.52-0.16c0.2-0.06,0.41-0.11,0.64-0.21
	l0.3,0.08l0.41,0.12h0.02l0.01,0.01c0.15,0.03,0.28,0.05,0.41,0.08c0.98,0.19,1.5,0.32,1.81,0.93c0.17,0.34,0.16,1.39,0.16,2.24
	c-0.01,0.76-0.01,1.48,0.08,1.93c0.08,0.36,0.18,0.71,0.3,1.09c0.28,0.93,0.57,1.89,0.36,2.97c-0.16,0.78-0.55,1.51-0.91,2.21
	c-0.2,0.37-0.4,0.76-0.56,1.15c-0.13,0.29-0.2,0.6-0.28,0.89c-0.07,0.27-0.13,0.53-0.24,0.79l-0.69,1.68l-0.01,0.03
	c-0.08,0.27-0.13,0.51-0.17,0.75c-0.05,0.29-0.11,0.56-0.21,0.84l-0.61,1.55l-0.17,0.43c-0.02,0.05-0.05,0.09-0.1,0.16
	c-0.09,0.11-0.19,0.25-0.25,0.46l-0.01,0.04v0.2c-0.45,2.67-3.16,4.25-5.34,5.53l-0.11,0.06l-0.92,0.32l-0.03,0.01l-0.03,0.02
	c-0.38,0.23-0.77,0.49-1.15,0.76c-0.29,0.2-0.6,0.41-0.89,0.59l-0.32,0.04l-0.03,0.01l-0.03,0.01c-0.21,0.08-0.39,0.21-0.55,0.33
	c-0.09,0.07-0.18,0.13-0.25,0.18l-0.06,0.01l-0.22,0.04l-0.1,0.02l-0.07,0.06l-0.52,0.46c-0.68,0.42-1.68,0.57-2.57,0.72
	c-0.08,0.01-0.17,0.01-0.26,0.01c-0.41,0-0.87-0.11-1.18-0.19l-0.13-0.03l-0.04-0.01l-0.05,0.01l-1,0.03
	c-0.19-0.01-0.39-0.03-0.6-0.04c-0.75-0.04-1.53-0.09-2.22-0.3l-0.76-0.35l-0.03-0.01l-0.04-0.01l-0.27-0.06l-0.49-0.11
	c-0.26-0.15-0.51-0.32-0.78-0.5c-0.46-0.32-0.94-0.65-1.55-0.89l-1.11-0.36L93,83.17l-0.03,0c-0.02-0.01-0.05-0.01-0.08-0.01
	c-0.31,0-1.59,0.43-2.02,0.84c-0.11,0.04-0.27,0.06-0.43,0.08l-0.01,0.01c-0.52-0.41-0.64-1.04-0.82-1.87
	c-0.04-0.2-0.08-0.4-0.13-0.6c-0.03-0.13-0.08-0.26-0.13-0.39c-0.09-0.25-0.18-0.49-0.14-0.73c0.06-0.36,0.23-0.75,0.39-1.11
	c0.14-0.34,0.3-0.69,0.38-1.03c0.09-0.39-0.05-0.68-0.17-0.9c-0.04-0.08-0.08-0.17-0.09-0.23c-0.02-0.12-0.02-0.24-0.02-0.37
	c0-0.22-0.01-0.46-0.08-0.74c-0.19-0.7-0.66-1.61-1.15-2.2l-0.02-0.03l-0.03-0.02l-0.77-0.63c-0.35-0.45-0.75-0.89-1.14-1.3
	c-0.94-1.02-1.92-2.07-2.24-3.54c-0.08-0.34-0.08-0.66-0.08-1c0-0.33,0-0.67-0.06-1.06c-0.31-1.96-0.26-3.39,0.2-4.66
	c0.09-0.26,0.13-0.48,0.17-0.65c0.07-0.35,0.1-0.48,0.4-0.67c0.05-0.03,0.08-0.06,0.12-0.08c0.01-0.01,0.02-0.02,0.03-0.02
	c0.01,0.01,0.03,0.01,0.06,0.02l0.23,0.08l0.15-0.19c0.13-0.16,0.33-0.26,0.56-0.38c0.17-0.09,0.34-0.18,0.52-0.32
	c0.16-0.11,0.32-0.25,0.48-0.39c0.25-0.21,0.52-0.43,0.78-0.59l0.75-0.32l0.06-0.03l0.05-0.05l0.2-0.2h0.21l0.08-0.04l0.68-0.37
	c0.23,0.04,0.42,0.16,0.63,0.29c0.27,0.16,0.57,0.34,0.97,0.38l0.09,0.01l0.09-0.03c0.39-0.17,1.13-0.54,1.49-0.84l0.07-0.06
	l0.03-0.09l0.06-0.14l0.01-0.03c0.09-0.08,0.31-0.22,0.5-0.33c0.05,0.05,0.11,0.09,0.18,0.12h0.01l0.02,0.01
	c0.08,0.03,0.17,0.05,0.26,0.05c0.11,0,0.2-0.02,0.27-0.04c0.04-0.01,0.08-0.02,0.12-0.02h0.01c0.4,0.07,0.86,0.22,1.31,0.36
	c0.21,0.07,0.43,0.13,0.64,0.19v0.25L96.94,57.59z M56.74,93.86l3.82-18.6l-5.18-11.79l5.16-7.66l2.22,1.5l-0.02,0.16l-0.01,0.03
	v0.03L62.78,58l0.03,0.4c-0.05,0.25-0.09,0.49-0.14,0.74l-0.01,0.06l0.01,0.06c0.05,0.4,0.04,0.89,0.03,1.41
	c-0.01,0.37-0.02,0.75,0,1.12l0.03,0.45l0.03,0.41c-0.08,0.5-0.05,1.05-0.03,1.57c0.03,0.44,0.04,0.86,0,1.23l-0.04,0.43
	c-0.05,0.52-0.12,1.17-0.19,1.59c-0.07,0.37-0.05,0.72-0.04,1.06c0.01,0.28,0.02,0.54-0.02,0.77c-0.07,0.44-0.03,0.82,0.02,1.18
	c0.05,0.34,0.1,0.66,0.04,1.01c-0.19,1.11-0.23,3.33-0.01,4.4l-0.02,0.17l-0.03,0.37l-0.01,0.05l0.01,0.04
	c0.06,0.38,0.04,0.82,0.03,1.24c-0.01,0.41-0.02,0.83,0.03,1.21l0.02,0.16c0.17,1.37,0.34,2.77,0.05,4.01
	c-0.12,0.47-0.01,1.16,0.05,1.53l-0.04,0.39l-0.07,0.72c-0.09,0.67-0.01,1.38,0.06,2.07c0.07,0.67,0.14,1.31,0.05,1.86l-0.05,0.32
	l0.29,0.07c0,0.15-0.04,0.35-0.07,0.54c-0.05,0.3-0.1,0.6-0.08,0.86c0.03,0.54,0.01,1.12-0.01,1.74c-0.03,0.96-0.06,2.04,0.1,3.15
	c0.02,0.17,0.01,0.47,0,0.78c-0.03,0.69-0.07,1.4,0.21,1.8l0.03,0.04l0.04,0.03l0.12,0.09c-0.22,0.25-0.33,0.63-0.39,1.07l0,0
	L56.74,93.86z M62.79,102.09l-0.01-0.18c0-0.01,0-0.03,0-0.04c0,0.01,0,0.03,0,0.04L62.79,102.09z M61.95,100.41l-4.66-2.27
	l-0.47-3.12L61.95,100.41z M62.72,117.97c0.02,0.24,0.04,0.45,0,0.63l-0.01,0.06l0.01,0.07l0.09,0.54l0.08,0.47
	c-0.12,0.54-0.1,1.05-0.09,1.54c0.01,0.41,0.03,0.84-0.04,1.3l-0.01,0.02v0.02v0.09l-0.07,1.58l-0.02,0.51l0.02-0.51l-2.04-7.82
	l2.2-1.26c-0.01,0.69-0.03,1.35-0.11,1.9C62.68,117.43,62.7,117.71,62.72,117.97z M62.79,126.62c0.02-0.5-0.05-1.25-0.12-1.73
	l-0.01-0.04l0.01,0.04C62.74,125.37,62.81,126.12,62.79,126.62z M62.14,125.16l-9.88-11.6l7.71,3.32L62.14,125.16z M51.31,112.35
	l-0.57-5.33l2.86,1.27v0.01l6.12,7.68L51.31,112.35z M40.51,80.14l5.79-18.97l4.67-3.11l-8.36,30.63L40.51,80.14z M42.03,89.4
	l-6.99-3.9l4.89-4.62L42.03,89.4z M31.13,48.98l5.97-6.72l-1.68,11.88L31.13,48.98z M34.94,54.71l-8.71-0.21l4.41-4.96L34.94,54.71z
	 M37.86,42.24l6.94,17.7l-6.04-1.2l-2.72-3.64L37.86,42.24z M26.43,36.32l5.94-8.4l4.81,11.96L26.43,36.32z M38.42,40.29l-0.31-0.1
	l-5.17-12.84l15.49,0.72c-1.82,20.65-2.46,28.2-2.67,30.98L38.42,40.29z M54.13,63.12l-1.41,7.5l2.54,9.78l-12.04,8.82l8.55-31.33
	l4.27,2.38L54.13,63.12z M55.1,64.65l4.66,10.6l-3.34,4.69l-2.43-9.37L55.1,64.65z M51.42,56.27l-4.96,3.3
	c0.33-4.21,1.74-20.37,2.62-30.36l10.88,25.26l-3.22,4.77L51.42,56.27z M54.76,81.69l-7.8,13.13l-3.83-4.62L54.76,81.69z
	 M47.79,96.31l3.14,2.61l-0.96,7.24l-3.37,1.6L47.79,96.31z M51.59,99.62l1.99,2.24l0.03-0.03v5.63l-2.89-1.29L51.59,99.62z
	 M51.84,98.8l4.21-4.01l0.51,3.46l-2.67,2.86L51.84,98.8z M56,93.8l-4.7,4.48l-3.32-2.77l8.69-14.61l-0.01-0.02l2.8-3.94L56,93.8z
	 M62.63,56.19c-0.01,0.11-0.02,0.22,0.01,0.34l0.01,0.04l-0.01-0.04C62.61,56.41,62.62,56.3,62.63,56.19z M63.17,2.15L63.17,2.15
	l-0.04,0.59l-0.05,0.96v0.05l0.09,1.14l-0.32,1.26c-0.11,0.6-0.08,1.16-0.04,1.71c0.03,0.52,0.06,1.01-0.05,1.45
	c-0.1,0.44-0.02,0.99,0.04,1.39l0.02,0.12l-0.03,0.4l-0.03,0.43v0.05l0.01,0.04c0.09,0.51,0.09,1.55-0.01,2.23V14v0.03l0.03,0.58
	l0.03,0.54c-0.07,0.34-0.05,0.7-0.03,1.03c0.02,0.34,0.03,0.68-0.03,1.03c-0.14,0.81-0.16,1.64-0.06,2.76c0.03,0.33,0,0.67-0.02,1
	c0,0.04-0.01,0.09-0.01,0.13c-0.02,0.27-0.03,0.55-0.01,0.82c0,0.02,0,0.04,0,0.06c0.02,0.2-0.02,0.45-0.04,0.69
	c-0.04,0.28-0.07,0.57-0.04,0.82c0.06,0.52,0.09,1.09,0.12,1.64c0.03,0.61,0.07,1.24,0.14,1.84L62.8,27.1l-0.04,0.15l-0.01,0.04
	v0.04l-0.03,1.17l-0.03,1.18v0.13l0.08,0.1l0.1,0.12l0.04,0.05c-0.11,0.41-0.12,1.12-0.12,2.2c-0.01,0.83-0.01,1.69-0.1,2.21
	l-0.01,0.03v0.03l0.03,0.91c-0.11,0.42-0.29,1.12-0.17,1.67c0.12,0.58,0.21,1.35,0.15,1.55c-0.31,1.2-0.07,2.95,0.03,3.61
	c-0.03,0.04-0.06,0.09-0.09,0.16l-0.02,0.05v0.16l0.01,0.04l0.12,0.49c0.03,0.15-0.01,0.36-0.04,0.57c-0.05,0.26-0.1,0.55-0.05,0.82
	c0.04,0.21,0.01,0.49-0.01,0.79c-0.04,0.39-0.08,0.84,0.01,1.28c0.17,0.85,0.1,2.2-0.04,3.09l-0.01,0.04l0.01,0.04l0.12,1.5
	l0.02,0.25c-0.11,0.32-0.06,0.76-0.02,1.21c0.03,0.27,0.05,0.55,0.04,0.73l-0.05,0.22l-0.06,0.24l-0.01,0.06l0,0.06
	c0.01,0.06,0.02,0.15,0.03,0.25c0.05,0.35,0.14,1,0.07,1.3c-0.01,0.03-0.02,0.07-0.04,0.11c0,0-0.01,0.01-0.01,0.01l-1.95-1.32
	L49.32,27.9l13.34-5.97c-0.02-0.27-0.01-0.55,0.01-0.82L49.7,26.93L63.13,2.73L63.17,2.15z M62.84,1.74L48.9,26.84L41.85,8.05
	L62.84,1.74z M41.27,8.59l7.03,18.73l-20.91-0.98L41.27,8.59z M16.5,37.86l-3.39-1.62l13.52-9.21v0.03l4.73,0.22L16.5,37.86z
	 M17.81,37.84l13.39-9.53l-5.56,7.86L17.81,37.84z M26.21,37.55l9.99,3.31l-7.91,2.91L26.21,37.55z M19.75,48.48l8.8-3.96
	l-0.01-0.05l8.35-3.07L25.25,54.47l-0.08,0l-6.01,6.03L19.75,48.48z M25.67,55.72l9.47,0.24l2.92,3.91l6.94,1.38l-5.65,18.51
	l-5.25,4.97l-12.92-1.67l-8.97-7.8l-1.98-15.85l8.8,3.02L25.67,55.72z M19,48.53l-0.58,11.95L10,47.28L19,48.53z M9.47,47.82
	l8.16,12.8L9.42,57.8L9.47,47.82z M9.2,61.22l1.78,14.24l-0.12,0.1c-2.4,2.08-3.71,3.25-4.42,3.92C6.89,76.41,8.23,67.59,9.2,61.22z
	 M8.74,47.51l-0.06,9.27l-4.54-6.55L8.74,47.51z M3.75,50.96l5.08,7.34v0.02l-7.11,2.61L3.75,50.96z M5.73,79.12L1.78,61.69
	l6.99-2.57C8.53,60.71,7.86,65.1,7.2,69.49c-0.42,2.74-0.84,5.49-1.15,7.55C5.92,77.85,5.82,78.56,5.73,79.12z M6.26,80.67
	c0.39-0.44,2.93-2.68,4.73-4.24l9.39,18.74L6.26,80.67z M11.9,76.62L20.39,84l0.56,10.66L11.9,76.62z M21.14,84.28L34.42,86
	l7.23,4.04l-19.88,5.89L21.14,84.28z M31.64,100.06l-9.38-3.51l18.96-5.61L31.64,100.06z M32.98,103.74l-0.87-3.11l9.65-9.18
	l-4.76,14.1L32.98,103.74z M37.46,106.53l4.89-14.49l1.44,22.53l-3.45,3.74L37.46,106.53z M45.32,128.71l-2.18-8.28l1.85-1.26
	l2.59,10.9L45.32,128.71z M48.11,129.09l-2.34-9.83l3.21,1.63L48.11,129.09z M49.06,120.1l-3.87-1.97l-2.51,1.71l-1.9-0.91
	l3.44-3.73l4.95,3.87L49.06,120.1z M49.26,118.2l-4.74-3.7l-1.49-23.24l3.59,4.34l-1.38,13.16l4.56,4.2L49.26,118.2z M46.78,108.49
	l3.21-1.52l0.53,4.97L46.78,108.49z M56.56,128.29l-0.37,1.2l-1.98-1.43l0.18-2.39l0.63-0.24l1.62,1.66L56.56,128.29z M59.52,129.3
	l-0.14,0.54l-0.37,0.09l-1.2-1.7l0.07-1.06l1.16-0.55l0.57,0.8L59.52,129.3z M60.41,126.42l-0.97-1.37l-2.1,0.99L55.33,124
	l-0.93,0.36l-0.14-2.47l-3.9-2.35l0.66-6.29l10.94,12.85l-0.53-0.25L60.41,126.42z M62.98,129.31c-0.02,0.17-0.05,0.34-0.06,0.51
	l-0.48,0.46l-1.68-1.21l0.06-1.47l0.65-0.37l1.1,0.51c-0.01,0.14-0.01,0.29,0.03,0.44c0.07,0.27,0.24,0.42,0.4,0.51
	C63.05,128.85,63.01,129.08,62.98,129.31z M63.34,113.46c-0.1,0.05-0.19,0.11-0.27,0.14l-0.23,0.09v0.1l-2.24,1.29l-5.76-7.21v-5.97
	l2.29-2.46l5.94,2.9l0.02-0.05c-0.05-0.03-0.11-0.06-0.16-0.09c0.05,0.03,0.11,0.06,0.16,0.09c0.23,0.11,0.47,0.17,0.75,0.17
	c0.74,0,1.51-0.42,2.02-0.7l0.06-0.03c0.02-0.01,0.05-0.01,0.09-0.01c0.05,0,0.09,0,0.14,0.01c0.07,0,0.15,0.01,0.23,0.01
	c0.1,0,0.19-0.01,0.29-0.03l0.03-0.01l0.03-0.02l0.86-0.37l0.55-0.25l0.03-0.01l0.03-0.02c0.27-0.18,0.49-0.42,0.71-0.65
	c0.36-0.4,0.69-0.74,1.21-0.81c0.14,0.09,0.27,0.18,0.4,0.26c0.48,0.32,0.94,0.62,1.16,1.08l0.38,1.5l0.01,0.06l0.03,0.05
	c0.03,0.05,0.07,0.11,0.11,0.17c0.29,0.45,0.69,1.06,0.56,1.74c-0.02,0.12-0.09,0.28-0.16,0.43c-0.07,0.17-0.14,0.32-0.17,0.47
	c-0.02,0.15-0.02,0.28-0.02,0.39c0,0.13,0.01,0.22-0.04,0.35c-0.04,0.09-0.11,0.2-0.18,0.32c-0.13,0.2-0.27,0.42-0.34,0.68l0,0.01
	l-0.01,0.01l-0.04,0.22l-0.07,0.35l-0.21,0.37l-0.03,0.05l-0.01,0.06l-0.05,0.33c-0.2,1.04-0.4,2.12-0.84,2.96
	c-0.17,0.17-0.42,0.33-0.68,0.51c-0.46,0.31-0.98,0.66-1.25,1.15l-0.03,0.05l-0.01,0.06l-0.03,0.15l-0.01,0.02l-0.13,0.09
	l-0.24,0.18l-0.05,0.04l-0.03,0.05c-0.09,0.14-0.17,0.3-0.25,0.45c-0.18,0.36-0.35,0.7-0.64,0.82c-0.12,0.05-0.29,0.08-0.47,0.08
	c-0.42,0-0.83-0.14-0.98-0.28l-0.25-0.38l-0.21-0.31l-0.03-0.05l-0.04-0.03c-0.06-0.05-0.13-0.11-0.21-0.17
	c-0.19-0.15-0.46-0.36-0.53-0.51l-0.11-0.2l-0.23,0.01C63.82,113.18,63.56,113.33,63.34,113.46z M65.4,130.24
	c-0.26,0.18-0.52,0.62-1.01,0.39c-0.3-0.14-0.56-1.77-0.42-2.28c0.17-0.26,0.34-0.52,0.51-0.78c0.26-0.24,0.78-0.19,1.11-0.37
	c0.38,0,0.58,0.09,0.87,0.12C67.22,128.53,66.28,129.65,65.4,130.24z M69.71,128.07c-0.22,0.46-0.19,0.98-0.18,1.56
	c-0.4,0.46-1.13,0.99-1.94,0.82c-0.2-0.38-0.11-0.96-0.15-1.41c-0.12-1.17,0.31-1.79,1.25-2.07c0.21-0.03,0.42-0.06,0.63-0.09h0.32
	c0.13,0.11,0.25,0.17,0.33,0.32C70.12,127.61,69.81,127.86,69.71,128.07z M73.24,127.41c-0.07,0.17-0.32,0.43-0.45,0.6
	c-0.3,0.41-0.91,0.6-1.22,1.02c-0.12,0.16-0.05,0.27-0.13,0.51c-0.08,0.27-0.42,0.68-0.65,0.84c-0.09-0.02-0.18-0.04-0.27-0.06
	c-0.57-1.01-0.03-2.04,0.32-2.82l0.4-1.17c0.46-0.77,1.26-1.35,1.94-1.92h0.24l0.42,0.78C73.64,125.93,73.43,126.67,73.24,127.41z
	 M77.12,112.58l-0.01,0.02c-0.01,0.01-0.01,0.01-0.02,0.01c-0.07,0.03-0.19,0.06-0.31,0.15l-0.07,0.06l-0.04,0.09l-0.62,1.68
	l-0.03,0.07l0,0.08l0.02,0.45l0.03,0.63L76,116.48l-0.06,0.4l-0.01,0.03l0.01,0.03l0.02,0.65c-0.06,0.32-0.12,0.63-0.17,0.94
	c-0.32,1.74-0.62,3.38-1.86,4.27c-0.15,0.11-0.24,0.24-0.31,0.35c-0.05,0.07-0.08,0.12-0.11,0.15l-0.27-0.02l-0.37-0.01l-0.08,0
	l-0.07,0.03c-0.51,0.21-0.86,0.71-1.16,1.16c-0.1,0.14-0.19,0.28-0.29,0.39l-0.09,0.03l-0.2,0.06l-0.06,0.02L70.88,125
	c-0.35,0.26-0.6,0.71-0.68,1.19c-0.17-0.14-0.36-0.2-0.57-0.26c-0.05-0.01-0.11-0.03-0.17-0.05c-0.32-0.11-0.59-0.16-0.82-0.16
	c-0.61,0-0.88,0.34-1.12,0.65c-0.11,0.14-0.23,0.28-0.38,0.4c-0.16-0.05-0.35-0.15-0.54-0.26c-0.38-0.21-0.82-0.45-1.31-0.45
	c-0.29,0-0.56,0.09-0.82,0.25l-0.02,0.01c-0.11,0.05-0.17,0.14-0.2,0.25c0,0.01-0.01,0.02-0.02,0.04l0,0.01l-0.02-0.07l-0.02-0.06
	l0-0.03l-0.04-0.11h0c0.01-0.15,0.08-0.48,0.16-0.75l0.01-0.02v-0.03c0.05-0.3-0.03-2.69-0.23-3.44c0-0.01,0.01-0.02,0.02-0.04
	c0.03-0.05,0.07-0.14,0.09-0.25l0.01-0.1l-0.04-0.09l-0.1-0.23l-0.04-0.09l0.03-0.16l0.11-0.7l0.01-0.08l-0.03-0.08l-0.07-0.2
	l0.06-0.11l0.12-0.19l-0.12-0.19l-0.06-0.09l-0.01-0.02c0.01-0.09,0.07-0.26,0.1-0.33c0.02-0.06,0.04-0.11,0.04-0.14l0.04-0.12
	l-0.05-0.11l-0.05-0.1l-0.01-0.03l0.01-0.04c0.17-1.09,0.31-2.19,0.31-3.03c0.11,0.2,0.23,0.4,0.41,0.56l0.08,0.08l0.12,0.01
	c0.17,0.02,0.37,0.05,0.58,0.1c0.44,0.08,0.92,0.16,1.39,0.16c0.57,0,1.01-0.12,1.34-0.39c0.23-0.18,0.31-0.45,0.36-0.66
	c0.03-0.11,0.06-0.2,0.1-0.28c0.42-0.72,1.62-2.19,2.23-2.33l0.39-0.08l-0.14-0.38l-0.05-0.13c0.06-0.06,0.13-0.13,0.21-0.2
	c0.11-0.11,0.24-0.22,0.35-0.34c0.16-0.18,0.49-0.91,0.41-1.32l-0.01-0.01v-0.01l-0.03-0.1l0.02-0.02l0.17-0.17l0.07-0.07l0.03-0.11
	l0.02-0.15l0.21-1.09c0.14-0.46,0.3-0.89,0.45-1.31c0.56-1.5,1.08-2.92,0.44-4.92c-0.07-0.21-0.23-0.41-0.38-0.61
	c-0.08-0.1-0.17-0.21-0.22-0.3l-0.07-0.35l-0.1-0.5l-0.01-0.04l-0.02-0.03c-0.13-0.28-0.99-1.44-1.3-1.63l-0.07-0.04l-0.07-0.01
	l-0.11-0.01l0.04-0.12l-0.25-0.15c-0.15-0.09-0.33-0.15-0.5-0.21c-0.16-0.05-0.32-0.11-0.4-0.17l-0.13-0.09l-0.15,0.03
	c-0.33,0.06-0.56,0.25-0.73,0.39c-0.08,0.06-0.15,0.12-0.21,0.16c-0.08,0.05-0.22,0.09-0.36,0.12c-0.21,0.06-0.44,0.12-0.64,0.25
	c-0.19,0.11-0.38,0.25-0.57,0.37c-0.43,0.28-0.89,0.58-1.29,0.81c-0.01,0.01-0.02,0.01-0.07,0.01h-0.07h-0.09
	c-0.14,0-0.33,0.01-0.53,0.11c-0.15,0.08-0.26,0.17-0.36,0.25c-0.12,0.1-0.2,0.18-0.35,0.21c-0.18-0.12-0.22-0.34-0.28-0.66
	c-0.04-0.25-0.1-0.53-0.27-0.73c0.01-0.07,0.01-0.14-0.02-0.21c0.34-0.38,0.32-1.13,0.25-1.76c-0.08-0.75-0.07-1.45-0.05-2.13
	c0.01-0.51,0.03-1.04-0.01-1.57l-0.03-0.66l-0.03-0.66c0.03-0.21-0.05-0.38-0.1-0.48c-0.01-0.03-0.03-0.07-0.03-0.08
	c0.01-0.03,0.02-0.07,0.04-0.11c0.07-0.23,0.2-0.6,0.07-0.97c-0.01-0.03-0.03-0.07-0.05-0.11c-0.04-0.11-0.17-0.44-0.15-0.56
	c0.04-0.24,0.06-0.52,0.09-0.81c0.05-0.46,0.09-0.95,0.17-1.33l0.01-0.04v-0.03l-0.02-0.83l-0.01-0.39
	c0.01-0.12,0.02-0.26,0.03-0.39c0.08-0.88,0.18-1.98,0.02-2.86c-0.05-0.26-0.02-0.54,0-0.81c0.03-0.31,0.06-0.64-0.04-0.93
	c0.27-0.83-0.02-2.54-0.03-2.56c-0.05-0.27,0.04-0.85,0.1-1.19l0.02-0.13c0.06-0.36,0.02-0.67-0.02-0.94
	c-0.03-0.19-0.05-0.35-0.03-0.49c0.09-0.79,0.17-1.78,0.05-2.44c-0.11-0.64-0.11-1.19-0.12-1.72c-0.01-0.53-0.01-1.08-0.12-1.7
	c-0.03-0.18-0.01-0.41,0.01-0.66c0.03-0.39,0.08-0.83-0.09-1.21l0.05-0.21l0.01-0.05l0-0.03c0.01-0.14,0.02-0.34-0.13-0.5
	c0.01-0.02,0.01-0.05,0.03-0.06c0.02-0.08,0.05-0.18,0.07-0.31c0.04-0.24,0-0.49-0.03-0.7c-0.03-0.17-0.05-0.32-0.03-0.43
	c0.01-0.07,0.03-0.14,0.05-0.23c0.08-0.27,0.17-0.65,0.13-1.01c-0.19-1.34-0.03-2.46,0.17-3.58c0.19-1.06,0.02-2.46-0.13-3.46
	l0.13-0.26l0.05-0.11l-0.02-0.12l-0.04-0.22c0.08-0.03,0.18-0.05,0.38-0.09l0.16-0.03l0.08-0.14l0.1-0.17
	c0.57-0.95,1.01-1.72,1.99-2.14c0.99,0.64,1.63,1.8,2.25,2.93c0.25,0.46,0.51,0.92,0.79,1.35c0.29,0.45,0.68,0.84,1.12,1.14
	l0.02,0.02l0.03,0.02l0.11,0.05l0.28,0.13c0.68,0.71,1.17,1.6,1.7,2.61c0.09,0.17,0.22,0.32,0.35,0.47c0.12,0.14,0.24,0.28,0.3,0.41
	c0.23,0.49,0.25,1.25,0.27,1.97c0.01,0.45,0.03,0.87,0.09,1.24l-0.03,0.8l0,0.05l0.01,0.05c0.11,0.47,0.27,0.93,0.42,1.39
	c0.14,0.41,0.28,0.81,0.39,1.23c0.16,0.64-0.06,1.34-0.26,1.96c-0.07,0.22-0.14,0.43-0.19,0.63c-0.08,0.34-0.12,0.65-0.16,0.96
	c-0.05,0.41-0.1,0.8-0.24,1.13l-0.54,1.11l-0.02,0.04l-0.01,0.05c-0.04,0.18-0.09,0.32-0.15,0.47l-0.05,0.13
	c-0.08,0.22,0,0.42,0.05,0.54c0.05,0.3-0.06,0.6-0.34,0.91l-0.15,0.17l0.09,0.2c0.02,0.04,0,0.17,0,0.26
	c-0.02,0.16-0.04,0.34,0.02,0.52c0.1,0.3,0.17,0.65,0.23,1.01c0.09,0.42,0.17,0.86,0.3,1.24c0,0.02-0.01,0.04-0.03,0.06
	c-0.04,0.06-0.09,0.14-0.13,0.29l-0.08,0.29l0.28,0.12c0.2,0.09,0.27,0.4,0.35,0.86c0.04,0.26,0.09,0.51,0.18,0.74l0.02,0.06
	l0.04,0.05l0.17,0.19c0.04,0.12,0.04,0.26,0.05,0.4c0.01,0.18,0.01,0.38,0.08,0.6l0.01,0.04l0.02,0.03l0.39,0.68l0.17,0.68
	l0.09,0.36l0,0.03l0.01,0.03l0.37,0.8l0.11,0.62l0.1,0.59l0.01,0.06l0.03,0.05c0.35,0.63,0.7,1.26,1.06,1.89
	c0.21,0.69,0.41,1.38,0.62,2.07l0.01,0.04l0.03,0.04c0.11,0.18,0.26,0.29,0.4,0.4c0.08,0.06,0.17,0.13,0.2,0.18
	c1.06,1.7,2.05,3.39,2.53,5.34c0.14,0.58-0.11,1.12-0.35,1.64c-0.12,0.26-0.24,0.51-0.3,0.77c-0.15,0.53,0.14,1.4,0.42,2.23
	c0.14,0.42,0.27,0.8,0.29,1.02c0.09,0.65-0.03,1.5-0.13,2.24c-0.08,0.65-0.15,1.22-0.11,1.66l-0.31,0.21l-0.04,0.05
	c-0.11,0.15-0.22,0.31-0.32,0.46c-0.19,0.28-0.37,0.55-0.6,0.74l-0.38,0.16l-0.04,0.02l-0.04,0.03c-0.12,0.1-0.22,0.19-0.3,0.28
	c-0.14,0.14-0.21,0.22-0.42,0.28l-0.13,0.04l-0.07,0.11l-0.02,0.03l-0.03,0.05l-0.26,0.39c-0.09,0.05-0.2,0.11-0.31,0.21l-0.05,0.05
	l-0.04,0.07L77.12,112.58z M85.6,122.54l-0.01,0.03l0,0.03l-0.13,0.7l-0.05,0.23c-0.16,0.45-0.4,0.9-0.64,1.34
	c-0.19,0.35-0.39,0.72-0.54,1.08c-0.12,0.3-0.25,0.61-0.37,0.91c-0.55,1.39-1.07,2.71-2.19,3.47c-0.19,0.13-0.43,0.34-0.72,0.6
	c-0.43,0.37-1.1,0.95-1.53,1.14c-0.13-0.45-0.28-1.38-0.22-1.73l0.27-0.32l0.05-0.05l0.02-0.06c0.09-0.25,0.1-0.56,0.11-0.9
	c0.01-0.23,0.01-0.48,0.05-0.65c0.1-0.49,0.61-2.98,0.32-4.04c-0.02-0.07-0.04-0.22-0.06-0.37c-0.05-0.36-0.1-0.76-0.25-1.01
	c-0.09-0.15-0.22-0.27-0.34-0.36c0.04-0.07,0.53-0.9,1.18-1.04c0.68-0.16,0.49-0.22,0.7-0.22c0.21,0,0.84,0.26,1.15,0.14
	c0.31-0.12,0.88-0.06,1.44-0.09c0.55-0.03,0.08,0.13,1.13,0.32c0.95,0.17,0.6,0.62,0.72,0.71C85.65,122.45,85.62,122.49,85.6,122.54
	z M128.62,64.39c-0.05,0.14-0.09,0.27-0.14,0.41c-0.04,0.13-0.07,0.27-0.11,0.42c-0.06,0.29-0.17,0.77-0.33,0.83l-0.14,0.05
	l-0.06,0.14c-0.19,0.4-0.27,0.8-0.35,1.18c-0.07,0.32-0.14,0.63-0.25,0.93c-0.09,0.22-0.24,0.43-0.4,0.63
	c-0.16,0.22-0.32,0.44-0.44,0.71c-0.31,0.73-0.54,2.29-0.57,3.07c-0.01,0.29-0.2,0.86-0.36,1.36c-0.1,0.29-0.2,0.58-0.25,0.81
	c-0.23,0.86-0.66,1.64-1.08,2.4c-0.31,0.55-0.62,1.11-0.85,1.7c-1.13,2.85-2.27,5.58-3.67,7.68c-0.29,0.44-0.7,0.63-1.18,0.86
	c-0.26,0.12-0.53,0.26-0.81,0.43l-0.04,0.02l-0.03,0.03l-0.47,0.47c-1.01,0.56-1.89,1.18-2.54,1.65c-0.28,0.2-0.51,0.47-0.73,0.72
	c-0.18,0.2-0.34,0.38-0.51,0.53c-0.09,0.08-0.19,0.15-0.29,0.24c-0.33,0.27-0.68,0.55-0.96,0.89c-0.24,0.29-0.52,0.57-0.82,0.86
	c-0.38,0.37-0.77,0.76-1.08,1.19c-0.96,1.38-2.14,2.59-3.16,3.59c-0.21,0.21-0.37,0.48-0.53,0.72c-0.17,0.29-0.34,0.56-0.56,0.71
	c-0.21,0.14-0.48,0.19-0.8,0.25c-0.21,0.04-0.44,0.08-0.68,0.16c-0.18,0.06-0.4,0.16-0.6,0.26c-0.15,0.07-0.32,0.15-0.44,0.19
	l-0.43-0.05l-0.07-0.01l-0.05,0.02v-0.09l-0.43,0.12c-0.4,0.1-0.87,0.55-1.41,1.07c-0.33,0.32-0.87,0.84-1.07,0.87l-0.23-0.03
	l-0.12,0.21c-0.07,0.11-0.47,0.57-0.62,0.72l-0.13,0.04l-0.18,0.05l-0.06,0.18l-0.03,0.09l-0.3,0.09l-0.07,0.14l-0.02,0.04
	c-0.04,0.08-0.08,0.15-0.11,0.23c-0.08,0.09-0.25,0.18-0.4,0.26c-0.14,0.08-0.29,0.15-0.42,0.25l-0.06,0.05l-0.03,0.06l-0.14,0.26
	c-0.55,0.4-1.24,0.67-1.91,0.94l-0.29,0.11c-0.16,0.06-0.28,0.17-0.39,0.26c-0.11,0.09-0.21,0.18-0.33,0.21l-0.3,0.09l0.03,0.21
	l-0.14,0.03l-0.5,0.11l-0.42,0.09l-0.07,0.02l-0.06,0.04c-0.03,0.02-0.05,0.04-0.07,0.06l-0.02-0.07l-0.33,0.11
	c-0.66,0.23-0.91,0.65-1.1,1.11L91,108.5l-0.21,0.17l-0.04,0.03l-0.03,0.05c-0.43,0.65-0.77,1.34-1.09,2.02
	c-0.21,0.45-0.44,0.92-0.69,1.37c-0.05,0.09-0.11,0.18-0.16,0.28c-0.26,0.45-0.56,0.95-0.68,1.53l-0.01,0.02v0.04l-0.02,0.56
	l-0.04,1.15v0.04l0,0.05c0.04,0.19,0.1,0.34,0.16,0.48c0.09,0.21,0.17,0.38,0.13,0.7c-0.02,0.2-0.07,0.42-0.12,0.65
	c-0.1,0.47-0.2,0.96-0.12,1.39c-0.1,0.16-0.16,0.34-0.22,0.5c-0.05,0.13-0.09,0.26-0.14,0.36l-0.33,0.18l-0.26,0.14l-0.02,0.01
	l-0.03,0.02c-0.19,0.15-0.42,0.4-0.69,0.75c-0.01,0-0.01,0-0.01,0l-1.14-0.77c0,0-0.65-0.37-0.78-0.41
	c-0.12-0.03-1.38-0.06-1.38-0.06s-1.57-0.2-1.82-0.17c-0.25,0.03-1.41,0.83-1.74,1.24c-0.21,0.25-0.98,0.28-1.54,0.28
	c-0.18-0.23-0.34-0.46-0.49-0.73c-0.42-0.75-0.32-2.21-0.07-2.92l0.03-0.07v-0.07l-0.03-0.56c0.04-0.29,0.06-0.57,0.07-0.84
	c0.01-0.28,0.02-0.54,0.07-0.8l0.01-0.06l-0.01-0.06l-0.05-0.34c0.38-1.26,1.23-1.96,2.15-2.7c0.69-0.57,1.41-1.16,1.93-2.01
	c0.14-0.25,0.16-0.48,0.17-0.69c0.01-0.14,0.02-0.26,0.07-0.41c0.12-0.4,0.17-0.86,0.23-1.34c0.02-0.19,0.05-0.38,0.07-0.57
	l0.01-0.03l-0.01-0.03l-0.02-0.58l0-0.24c0-0.03,0.01-0.05,0.02-0.08c0.07-0.28,0.16-0.66,0.06-1.08c-0.05-0.2-0.16-0.38-0.25-0.53
	c-0.05-0.08-0.1-0.17-0.11-0.21c-0.01-0.06,0-0.29,0-0.44c0.02-0.32,0.04-0.69-0.03-0.97l-0.01-0.03l-0.01-0.03l-0.26-0.5
	c0.01-0.05,0.05-0.12,0.1-0.22c0.04-0.06,0.09-0.14,0.12-0.21c0.39-0.94,0.53-1.68,0.43-2.18c-0.44-2.33-1.61-4.27-2.64-5.99
	c-0.11-0.18-0.21-0.35-0.32-0.52l-0.55-1.55l-0.02-0.05l-0.02-0.04l-0.17-0.24l-0.14-0.21c-0.08-0.2-0.15-0.4-0.23-0.6
	c-0.16-0.43-0.31-0.84-0.5-1.23l-0.29-0.94l-0.3-0.98l0-0.01l0-0.02c-0.09-0.22-0.19-0.46-0.31-0.7c-0.26-0.59-0.53-1.21-0.65-1.8
	l0.03-0.5l0-0.04l-0.01-0.04c-0.11-0.55-0.34-1.06-0.56-1.56c-0.36-0.8-0.71-1.57-0.5-2.4c0.11-0.4,0.05-0.76,0-1.07
	c-0.02-0.2-0.05-0.37-0.05-0.55l0.12-0.83l0.14-0.96c0.12-0.46,0.28-0.92,0.45-1.42c0.19-0.57,0.38-1.15,0.51-1.72l0.01-0.02
	l0.01-0.02l0.08-0.65l0.07-0.52c0.07-0.22,0.3-0.97,0.24-1.47c-0.01-0.14-0.02-0.31-0.02-0.5c-0.02-0.4-0.04-0.82-0.18-1.15
	l-0.01-0.03l-0.02-0.02l-0.64-1l-0.05-2.15l0-0.02v-0.02c-0.04-0.26-0.05-0.49-0.07-0.74c-0.02-0.31-0.04-0.64-0.12-1v-0.02
	l-0.01-0.02l-0.13-0.4l-0.03-0.07c0.15-0.55,0.45-0.96,0.76-1.41c0.09-0.13,0.19-0.27,0.28-0.4c0.12-0.18,0.21-0.38,0.3-0.57
	c0.12-0.25,0.23-0.51,0.39-0.67c0.15,0.04,0.28,0.11,0.42,0.2c0.19,0.11,0.39,0.24,0.69,0.29c0.06,0.01,0.13,0.02,0.2,0.02
	c0.11,0,0.22-0.02,0.32-0.03c0.08-0.01,0.17-0.03,0.24-0.03c0.03,0,0.05,0,0.07,0.01l0.13,0.17l1.01,1.32l0.03,0.04
	c0.22,0.2,0.54,0.37,0.87,0.53c0.27,0.14,0.64,0.32,0.73,0.46c0.46,0.72,0.72,1.43,0.93,2.52l0.03,0.8l0.03,0.82v0.06l0.01,0.05
	l0.29,0.8l0.34,0.95l0.15,0.65l0.11,0.45l0,0.02l0.01,0.02c0.32,0.92,1.06,1.53,1.72,2.07c0.21,0.18,0.4,0.34,0.58,0.51
	c0.21,0.19,0.35,0.45,0.51,0.73c0.07,0.12,0.14,0.25,0.22,0.37l0.04,0.06l0.06,0.05l0.46,0.3l0.33,0.21
	c0.12,0.66,0.27,1.47,0.53,2.17c0.06,0.15,0.14,0.31,0.23,0.48c0.1,0.2,0.2,0.4,0.24,0.52c0.01,0.17-0.29,0.8-0.42,1.07
	c-0.11,0.23-0.19,0.4-0.23,0.52c-0.17,0.53,0.02,1.09,0.18,1.54c0.05,0.14,0.09,0.26,0.12,0.36c0.03,0.12,0.03,0.21,0.02,0.34
	c-0.01,0.13-0.01,0.28,0.03,0.47c0.24,1.11,0.73,2.26,1.25,3.01l0.08,0.11l0.13,0.03c0.12,0.02,0.24,0.03,0.35,0.03
	c0.64,0,1.19-0.31,1.74-0.66l0.1-0.06c0.4-0.25,0.79-0.49,1.08-0.49c0.03,0,0.07,0.01,0.11,0.01c0.32,0.07,0.65,0.36,0.97,0.63
	c0.23,0.19,0.45,0.39,0.69,0.52c1.19,0.69,2.84,1.11,4.43,1.48l0.03,0.01h0.05l0.88-0.03l0.4-0.01c0.66,0.13,1.31,0.2,1.95,0.2
	c3.02,0,5.36-1.48,7.43-2.79c0.45-0.28,0.88-0.55,1.31-0.81l0.73-0.34l0.75-0.34l0.02-0.01l0.02-0.01c1.47-0.9,3.13-2.02,4.17-3.56
	c0.06-0.08,0.14-0.17,0.22-0.26c0.16-0.18,0.34-0.38,0.45-0.65l0.01-0.01l0.01-0.02l0.39-1.35l0.07-0.28
	c0.11-0.25,0.23-0.52,0.36-0.78c0.13-0.29,0.28-0.58,0.38-0.86l0.02-0.06v-0.41c0.07-0.21,0.29-0.64,0.43-0.9l0.04-0.07l0.01-0.08
	l0.01-0.14l0.02-0.25c0.04-0.15,0.11-0.34,0.17-0.54c0.11-0.34,0.23-0.69,0.28-0.97l0.01-0.05l-0.01-0.05l-0.01-0.12l-0.01-0.02
	c0.12-0.27,0.25-0.56,0.39-0.86c0.28-0.6,0.57-1.23,0.8-1.79c0.08-0.2,0.13-0.41,0.17-0.57c0.05-0.21,0.1-0.4,0.19-0.55l0.08-0.14
	c0.44-0.74,1.23-2.11,1.07-3.19c-0.04-0.26-0.12-0.49-0.18-0.69c-0.02-0.06-0.03-0.12-0.05-0.17l0.01-0.21l0.01-0.27l0.01-0.06
	l-0.02-0.06c-0.05-0.19-0.14-0.38-0.23-0.56c-0.1-0.2-0.2-0.4-0.24-0.59c-0.08-0.36-0.08-0.76-0.08-1.19c0-0.4,0.01-0.81-0.07-1.22
	c-0.04-0.21-0.1-0.58-0.06-0.84c0.11-0.69,0.1-1.19-0.02-1.55c-0.24-0.72-1.02-1.41-1.83-1.61l-0.03,0h-0.03l-0.25-0.02l-0.12-0.01
	l-0.26-0.26l-0.16,0.02l-0.5,0.05c-0.12-0.04-0.27-0.1-0.42-0.16c-0.28-0.11-0.56-0.23-0.8-0.28c-0.03-0.01-0.06-0.01-0.11-0.01
	c-0.26,0-1.2,0.21-1.48,0.28l-0.24,0.05l-0.02,0.14l-0.23-0.13l-0.13,0.25c-0.24,0.13-1.06,0.51-1.21,0.57l-0.03,0.02l-0.04,0.02
	l-0.82,0.59l-1.15,0.83l-0.02,0.01l-0.02,0.02c-0.59,0.6-1.13,0.89-1.61,0.89c-0.07,0-0.15-0.01-0.23-0.03
	c-0.01-0.01-0.07-0.06-0.1-0.09c-0.07-0.07-0.15-0.16-0.28-0.22c-0.21-0.09-0.39-0.13-0.54-0.16c-0.13-0.03-0.24-0.06-0.36-0.11
	c-0.29-0.13-0.59-0.35-0.88-0.56c-0.13-0.1-0.25-0.19-0.38-0.28c-0.34-0.23-0.72-0.32-1.09-0.42c-0.14-0.04-0.29-0.07-0.44-0.12
	l-0.76-0.38l-0.02-0.01l-0.03-0.01c-0.37-0.11-0.82-0.18-1.32-0.18c-0.48,0-1.01,0.05-1.57,0.16l-0.3-0.05l-0.04-0.01h-0.03
	c-0.42,0.01-0.87,0.03-1.35,0.17c-0.19,0.05-0.37,0.13-0.53,0.21c-0.29,0.12-0.53,0.23-0.84,0.23c-0.13,0-0.26-0.02-0.39-0.05
	c-0.38-0.09-0.71-0.24-1.07-0.39c-0.28-0.12-0.58-0.26-0.89-0.35c-0.26-0.08-0.49-0.11-0.71-0.13c-0.22-0.03-0.43-0.05-0.66-0.13
	c-0.05-0.02-0.14-0.09-0.22-0.14c-0.17-0.13-0.34-0.26-0.57-0.32c-0.12-0.03-0.23-0.03-0.34-0.03c-0.1,0-0.19,0-0.26-0.02
	c-0.05-0.07-0.18-0.17-0.37-0.17c-0.03,0-0.07,0-0.12,0.02c-0.55,0.1-0.74,0.43-0.91,0.73c-0.03,0.05-0.06,0.1-0.09,0.16l-0.23,0.19
	l-0.12,0.1l-0.21,0.18l0.08,0.17c-0.19,0.1-0.49,0.15-0.85,0.15c-0.44,0-0.88-0.07-1.23-0.16v-0.4l-0.38,0.03L89.12,56h-0.09
	l-0.07,0.05l-0.02,0.01c-0.1,0.06-0.15,0.13-0.18,0.2c-0.01,0-0.03,0-0.04,0.01c-0.27,0.07-0.5,0.26-0.69,0.43
	c-0.09,0.08-0.2,0.16-0.26,0.2c-0.23,0.12-0.49,0.19-0.78,0.26c-0.34,0.08-0.69,0.17-1.03,0.38c-0.19,0.11-0.41,0.28-0.64,0.46
	c-0.38,0.29-0.83,0.64-1.2,0.78c-0.09-0.43-0.18-1.3-0.1-1.61c0.33-1.38,0.63-2.98,0.43-4.42l0.01-0.24l0.01-0.27V52.2l-0.01-0.04
	c-0.04-0.19-0.12-0.33-0.19-0.44c-0.02-0.04-0.04-0.08-0.06-0.11c0.15-0.07,0.29-0.14,0.43-0.2c0.71-0.32,1.32-0.6,1.88-1.32
	c0.13-0.17,0.22-0.36,0.31-0.55c0.1-0.23,0.21-0.46,0.33-0.55c0.08-0.06,0.34-0.06,0.53-0.06c0.23,0,0.48,0,0.69-0.07
	c0.69-0.21,1.25-1.28,1.4-1.8c0.17-0.6-0.08-0.95-0.26-1.2c-0.09-0.13-0.16-0.24-0.19-0.37c0.25-0.28,0.43-0.49,0.78-0.63h0
	c0.03,0,0.08,0.02,0.12,0.03c0.08,0.14,0.12,0.32,0.11,0.59l-0.01,0.2l0.18,0.11l0.03,0.01c0.18,0.11,0.4,0.25,0.72,0.25
	c0.1,0,0.21-0.02,0.32-0.04c0.55-0.14,1.02-0.57,1.43-0.95c0.22-0.19,0.42-0.38,0.61-0.5l0.39-0.22l0.4-0.22l0.02-0.01l0.02-0.02
	c0.91-0.67,1.37-1.69,1.8-2.67c0.28-0.62,0.57-1.25,0.96-1.78c0.16-0.22,0.47-0.45,0.73-0.65c0.09-0.06,0.17-0.13,0.25-0.19
	c0.18-0.14,0.35-0.31,0.51-0.47c0.22-0.22,0.43-0.43,0.65-0.56c0.5-0.3,1.18-0.46,1.83-0.6c0.11-0.03,0.21-0.05,0.31-0.08
	c-0.16,0.33-0.25,0.68-0.35,1.03c-0.11,0.38-0.21,0.75-0.38,1.03c-0.07,0.11-0.14,0.21-0.2,0.31c-0.26,0.39-0.5,0.76-0.63,1.43
	c-0.12,0.66-0.04,1.25,0.06,1.84c0.05,0.26,0.07,0.46,0.1,0.64c0.14,0.92,0.2,1.14,1.11,1.83c0.05,0.04,0.1,0.1,0.15,0.16
	c0.12,0.14,0.29,0.32,0.56,0.41c0.46,0.15,1.01,0.23,1.61,0.23c0.42,0,0.88-0.04,1.3-0.12l1.04,0.06h0.05l0.05-0.01
	c0.64-0.16,1.29-0.25,1.92-0.35c0.62-0.09,1.27-0.19,1.94-0.34c0.16-0.04,0.3-0.13,0.41-0.21c0.01-0.01,0.03-0.02,0.05-0.03
	l0.24,0.06l0.07,0.01l0.08-0.01c0.28-0.05,0.49-0.2,0.68-0.33c0.1-0.07,0.19-0.14,0.28-0.16c0.04,0,0.1,0.01,0.16,0.03
	c0.09,0.02,0.2,0.05,0.31,0.05c0.11,0,0.21-0.02,0.3-0.06c0.14-0.06,0.23-0.15,0.29-0.21c0.07-0.08,0.1-0.11,0.19-0.12
	c0.01,0,0.03,0,0.05,0c0.16,0,0.32,0.11,0.47,0.21c0.09,0.06,0.17,0.11,0.25,0.15l0.01,0.01l0.02,0.01l0.49,0.18l0.47,0.17
	c0.21,0.12,0.41,0.26,0.62,0.42c0.45,0.32,0.92,0.66,1.5,0.8l0.03,0l0.03,0.01l0.69,0.06l0.66,0.06c0.5,0.12,1.06,0.21,1.62,0.3
	c0.99,0.16,2,0.32,2.62,0.63c0.11,0.06,0.23,0.09,0.35,0.09c0.1,0,0.19-0.03,0.26-0.04c0.05-0.02,0.08-0.02,0.1-0.02
	c0.01,0,0.02,0,0.03,0c0.19,0.04,0.3,0.33,0.29,0.57l-0.01,0.25l0.24,0.09c0.37,0.14,0.55,0.91,0.7,1.52
	c0.13,0.54,0.24,1.03,0.5,1.3c-0.01,0.07-0.02,0.16-0.01,0.27c0.06,0.39,0.25,0.8,0.44,1.19c0.12,0.27,0.24,0.52,0.31,0.74
	l0.02,0.38l0.01,0.05l0.02,0.06c0.05,0.11,0.11,0.22,0.18,0.32c0.08,0.14,0.16,0.28,0.2,0.44c0.03,0.16-0.06,0.45-0.13,0.71
	c-0.1,0.37-0.2,0.76-0.1,1.1l0.01,0.07l0.04,0.06l1.62,1.97l0.07,0.16l0.09,0.19l0.06,0.11l0.1,0.05c0.13,0.07,0.26,0.14,0.39,0.22
	c0.13,0.82,0.19,1.8,0.14,2.73l-0.01,0.19l0.16,0.11C129.17,62.59,128.99,63.29,128.62,64.39z M85.91,88.37
	c-0.09,0-0.17,0-0.26,0.02c-0.34-0.26-1.11-0.73-1.87-0.76h-0.13l-0.1,0.08c-0.1,0.09-0.25,0.22-0.39,0.36
	c-0.16,0.16-0.35,0.35-0.46,0.42l-0.19,0.14l0.05,0.21h-0.01l-0.1,0.01l-0.2,0.02l-0.09,0.18c-0.03,0.06-0.04,0.12-0.05,0.17l0,0.03
	c-0.25,0.63,0.13,1.09,0.34,1.37c0.04,0.06,0.09,0.11,0.12,0.16c0.14,0.22,0.29,0.56,0.43,0.89c0.11,0.26,0.22,0.52,0.33,0.75
	l0.03,0.04l0.03,0.03l0.98,1.02l0.08,0.08l0.11,0.02c0.05,0,0.11,0.01,0.16,0.01c1.05,0,2.77-1.93,3-2.6
	c0.1-0.31,0.22-1.2,0.22-1.48v-0.13l-0.08-0.1C87.49,88.86,86.71,88.37,85.91,88.37z M86.89,90.41c-0.26,0.55-1.57,2.08-2.4,1.72
	c-0.24-0.35-0.41-1.24-0.65-1.6c-0.15-0.22-0.52-0.29-0.57-0.63c0.2-0.25,0.56-0.88,0.76-1.13h0.15c0.49,0.48,1.9,0.86,2.83,1.03
	C87.09,89.94,86.84,90.2,86.89,90.41z"/>
</svg>
